<svg width="300" height="52" viewBox="0 0 300 52" fill="none" xmlns="http://www.w3.org/2000/svg">
<rect width="5" height="52" fill="#494949"/>
<rect x="60" width="5" height="52" fill="#494949"/>
<rect x="24" width="2" height="52" fill="#494949"/>
<rect x="28" width="2" height="52" fill="#494949"/>
<rect x="10" width="9" height="52" fill="#494949"/>
<rect x="45" width="2" height="52" fill="#494949"/>
<rect x="53" width="2" height="52" fill="#494949"/>
<rect x="33" width="9" height="52" fill="#494949"/>
<rect x="157" width="5" height="52" fill="#494949"/>
<rect x="145" width="2" height="52" fill="#494949"/>
<rect x="131" width="2" height="52" fill="#494949"/>
<rect x="141" width="2" height="52" fill="#494949"/>
<rect x="150" width="4" height="52" fill="#494949"/>
<rect x="68" width="5" height="52" fill="#494949"/>
<rect x="108" width="5" height="52" fill="#494949"/>
<rect x="128" width="2" height="52" fill="#494949"/>
<rect x="76" width="2" height="52" fill="#494949"/>
<rect x="116" width="9" height="52" fill="#494949"/>
<rect x="93" width="2" height="52" fill="#494949"/>
<rect x="101" width="2" height="52" fill="#494949"/>
<rect x="81" width="9" height="52" fill="#494949"/>
<rect x="279" width="9" height="52" fill="#494949"/>
<rect x="171" width="5" height="52" fill="#494949"/>
<rect x="225" width="5" height="52" fill="#494949"/>
<rect x="292" width="5" height="52" fill="#494949"/>
<rect x="189" width="2" height="52" fill="#494949"/>
<rect x="168" width="2" height="52" fill="#494949"/>
<rect x="197" width="2" height="52" fill="#494949"/>
<rect x="178" width="9" height="52" fill="#494949"/>
<rect x="214" width="2" height="52" fill="#494949"/>
<rect x="218" width="2" height="52" fill="#494949"/>
<rect x="202" width="9" height="52" fill="#494949"/>
<rect x="262" width="5" height="52" fill="#494949"/>
<rect x="275" width="2" height="52" fill="#494949"/>
<rect x="271" width="2" height="52" fill="#494949"/>
<rect x="298" width="2" height="52" fill="#494949"/>
<rect x="257" width="4" height="52" fill="#494949"/>
<rect x="238" width="5" height="52" fill="#494949"/>
<rect x="246" width="9" height="52" fill="#494949"/>
<rect x="231" width="2" height="52" fill="#494949"/>
<rect x="235" width="2" height="52" fill="#494949"/>
</svg>
