<svg width="15" height="15" viewBox="0 0 15 15" fill="none" xmlns="http://www.w3.org/2000/svg">
<g clip-path="url(#clip0_9396_123315)">
<path d="M6.99998 0V15H7.99998V0H6.99998ZM4.61498 3.013C4.72464 3.03892 4.82234 3.10112 4.89222 3.18951C4.9621 3.27791 5.00007 3.38732 4.99998 3.5V11.5C4.99998 11.6326 4.9473 11.7598 4.85354 11.8536C4.75977 11.9473 4.63259 12 4.49998 12H0.499983C0.414719 12 0.330872 11.9782 0.256411 11.9367C0.181949 11.8951 0.119348 11.8352 0.0745547 11.7627C0.0297618 11.6901 0.00426609 11.6073 0.000490514 11.5221C-0.00328506 11.437 0.014785 11.3522 0.0529833 11.276L4.05298 3.276C4.10335 3.17528 4.18625 3.09451 4.28825 3.04678C4.39025 2.99904 4.50538 2.98714 4.61498 3.013ZM10.385 3.013C10.4946 2.98714 10.6097 2.99904 10.7117 3.04678C10.8137 3.09451 10.8966 3.17528 10.947 3.276L14.947 11.276C14.9852 11.3522 15.0033 11.437 14.9995 11.5221C14.9957 11.6073 14.9702 11.6901 14.9254 11.7627C14.8806 11.8352 14.818 11.8951 14.7436 11.9367C14.6691 11.9782 14.5852 12 14.5 12H10.5C10.3674 12 10.2402 11.9473 10.1464 11.8536C10.0527 11.7598 9.99998 11.6326 9.99998 11.5V3.5C9.99989 3.38732 10.0379 3.27791 10.1077 3.18951C10.1776 3.10112 10.2753 3.03892 10.385 3.013Z" fill="black"/>
</g>
<defs>
<clipPath id="clip0_9396_123315">
<rect width="15" height="15" fill="white"/>
</clipPath>
</defs>
</svg>
