<svg width="566" height="566" viewBox="0 0 566 566" fill="none" xmlns="http://www.w3.org/2000/svg">
<g opacity="0.2">
<rect y="282.843" width="400" height="400" rx="20" transform="rotate(-45 0 282.843)" fill="url(#paint0_linear_703_3147)"/>
<rect x="43.2031" y="283.33" width="340" height="340" rx="15" transform="rotate(-45 43.2031 283.33)" stroke="white" stroke-width="10" stroke-linejoin="round"/>
<path fill-rule="evenodd" clip-rule="evenodd" d="M162.395 233.417C159.435 229.965 154.474 228.883 150.629 231.312C131.022 243.698 118 265.563 118 290.469C118 314.367 129.989 335.465 148.28 348.076C150.571 349.656 153.554 347.768 153.554 344.985V344.985C153.554 319.422 167.272 297.062 187.748 284.867C193.843 281.237 196.168 272.801 191.55 267.416L162.395 233.417Z" fill="url(#paint1_linear_703_3147)"/>
<path fill-rule="evenodd" clip-rule="evenodd" d="M405.577 233.417C408.537 229.965 413.498 228.883 417.343 231.312C436.95 243.698 449.972 265.563 449.972 290.469C449.972 314.367 437.983 335.465 419.692 348.076C417.401 349.656 414.418 347.768 414.418 344.985V344.985C414.418 319.422 400.7 297.062 380.223 284.867C374.129 281.237 371.804 272.801 376.422 267.416L405.577 233.417Z" fill="url(#paint2_linear_703_3147)"/>
<path fill-rule="evenodd" clip-rule="evenodd" d="M380.688 188.164C406.088 201.167 428.966 219.238 448.137 241.402C451.55 245.348 451.107 251.259 447.299 254.826L419.65 280.727C415.736 284.394 409.643 284.298 405.64 280.728C372.886 251.523 331.014 234 285.386 234C242.875 234 203.624 249.211 171.97 274.909C167.788 278.304 161.667 278.105 157.93 274.227L130.787 246.058C127.169 242.303 127.027 236.381 130.634 232.615C150.818 211.548 174.51 194.771 200.48 183.19C229.183 170.391 260.037 164.222 291.068 165.078C322.1 165.935 352.624 173.798 380.688 188.164Z" fill="#FBFBFB"/>
<path fill-rule="evenodd" clip-rule="evenodd" d="M274.207 201.636L260.71 222.857C260.343 223.435 259.865 223.9 259.322 224.244C258.648 225.69 257.224 226.731 255.519 226.836C253.039 226.989 250.904 225.102 250.751 222.622L249.548 203.159L248.051 203.251C245.571 203.405 243.436 201.518 243.282 199.037C243.129 196.557 245.016 194.422 247.496 194.269L253.484 193.899L253.485 193.899C255.966 193.745 258.101 195.632 258.254 198.113L258.92 208.901L267.897 194.788C268.867 193.262 270.603 192.519 272.285 192.74C272.339 192.735 272.394 192.731 272.449 192.727L278.436 192.358L278.437 192.357C280.608 192.223 282.514 193.651 283.059 195.672C283.137 195.961 283.187 196.261 283.206 196.572L284.686 220.526C284.839 223.006 282.952 225.142 280.472 225.295C277.991 225.448 275.856 223.561 275.703 221.081L274.501 201.618L274.207 201.636Z" fill="#D80404"/>
<path fill-rule="evenodd" clip-rule="evenodd" d="M273.494 177.596C270.46 177.741 268.117 180.318 268.262 183.353C268.407 186.387 270.984 188.729 274.019 188.584L281.011 188.25C284.045 188.105 286.387 185.528 286.242 182.494C286.097 179.46 283.52 177.117 280.486 177.262L273.494 177.596ZM275.73 182.495C275.454 182.508 275.241 182.743 275.254 183.019C275.268 183.294 275.502 183.507 275.778 183.494L278.774 183.351C279.05 183.338 279.263 183.104 279.25 182.828C279.237 182.552 279.002 182.339 278.727 182.352L275.73 182.495Z" fill="#D80404"/>
<path fill-rule="evenodd" clip-rule="evenodd" d="M294.718 193.167C292.235 193.075 290.147 195.013 290.055 197.497C289.963 199.98 291.902 202.068 294.385 202.16L307.876 202.66L307.154 222.147C307.062 224.63 309.001 226.718 311.485 226.81C313.968 226.902 316.056 224.963 316.148 222.48L317.036 198.496C317.042 198.341 317.04 198.187 317.03 198.035C316.884 195.759 315.034 193.919 312.706 193.833L294.718 193.167Z" fill="#D80404"/>
<path fill-rule="evenodd" clip-rule="evenodd" d="M353.055 213.018L332.216 227.098C331.649 227.481 331.025 227.718 330.39 227.817C329.195 228.874 327.474 229.26 325.869 228.677C323.533 227.829 322.327 225.247 323.176 222.911L329.833 204.583L328.424 204.071C326.088 203.222 324.882 200.641 325.73 198.305C326.579 195.969 329.16 194.763 331.496 195.612L337.134 197.66L337.136 197.66C339.472 198.509 340.677 201.09 339.829 203.426L336.139 213.586L349.998 204.221C351.496 203.209 353.385 203.22 354.839 204.094C354.891 204.11 354.942 204.128 354.994 204.147L360.632 206.195L360.634 206.195C362.678 206.938 363.856 209.007 363.551 211.078C363.507 211.374 363.433 211.669 363.327 211.961L355.133 234.519C354.285 236.855 351.703 238.061 349.367 237.213C347.031 236.364 345.825 233.783 346.674 231.447L353.331 213.118L353.055 213.018Z" fill="#D80404"/>
<rect x="372.756" y="192.023" width="15" height="9" rx="4.5" transform="rotate(116.555 372.756 192.023)" fill="#D80404"/>
<path fill-rule="evenodd" clip-rule="evenodd" d="M372.234 211.296C369.955 210.303 367.304 211.346 366.311 213.624C365.318 215.902 366.36 218.554 368.639 219.547L381.015 224.939L373.226 242.816C372.233 245.095 373.275 247.746 375.554 248.739C377.832 249.732 380.484 248.69 381.477 246.411L391.063 224.409C391.125 224.267 391.179 224.123 391.226 223.978C391.921 221.806 390.871 219.417 388.735 218.486L372.234 211.296Z" fill="#D80404"/>
<path fill-rule="evenodd" clip-rule="evenodd" d="M223.851 202.165C221.487 202.931 220.192 205.469 220.959 207.833C221.726 210.198 224.264 211.492 226.628 210.726L230.908 209.337L235.536 223.606L232.753 224.508L217.411 213.338C215.402 211.875 212.587 212.318 211.124 214.328C209.662 216.337 210.104 219.151 212.114 220.614L227.717 231.974C227.812 232.044 227.91 232.109 228.009 232.17C229.114 233.745 231.155 234.488 233.08 233.864L242.593 230.779C244.957 230.012 246.252 227.474 245.485 225.11L245.484 225.106L238.081 202.28C237.314 199.916 234.776 198.622 232.412 199.388L223.851 202.165Z" fill="#D80404"/>
<path fill-rule="evenodd" clip-rule="evenodd" d="M171.701 232.625C170.454 230.475 171.186 227.721 173.336 226.475L196.693 212.93C198.574 211.839 200.918 212.264 202.309 213.827C202.508 214.05 202.688 214.297 202.843 214.566L214.883 235.327C216.13 237.477 215.397 240.231 213.248 241.478L203.4 247.188C201.721 248.626 199.196 248.643 197.494 247.136L190.4 240.855L188.196 242.133C186.046 243.38 183.293 242.648 182.046 240.498C180.799 238.348 181.531 235.594 183.681 234.347L188.872 231.337C190.989 230.11 193.692 230.801 194.965 232.877L200.97 238.193L204.84 235.949L197.315 222.973L177.851 234.26C175.701 235.507 172.948 234.775 171.701 232.625Z" fill="#D80404"/>
<rect x="294" y="274" width="17" height="83" rx="8.5" fill="white"/>
<g filter="url(#filter0_d_703_3147)">
<path d="M262 390C262 377.85 271.85 368 284 368V368C296.15 368 306 377.85 306 390L306 425C306 437.15 296.15 447 284 447V447C271.85 447 262 437.15 262 425L262 390Z" fill="white"/>
</g>
<g filter="url(#filter1_d_703_3147)">
<rect x="331.361" y="311.969" width="16.6369" height="88.739" rx="8.31844" transform="rotate(30.146 331.361 311.969)" fill="white"/>
</g>
<path d="M249.587 363.027C246.213 348.156 257.516 334 272.765 334H288.198C303.134 334 314.368 347.614 311.533 362.278L306.997 385.744C304.835 396.924 295.049 405 283.662 405H278.09C266.991 405 257.369 397.317 254.913 386.493L249.587 363.027Z" fill="white"/>
<g filter="url(#filter2_d_703_3147)">
<rect x="245" y="331" width="17" height="29" rx="8.5" fill="white"/>
</g>
<g filter="url(#filter3_d_703_3147)">
<rect x="262" y="325" width="17" height="36" rx="8.5" fill="white"/>
</g>
<g filter="url(#filter4_d_703_3147)">
<rect x="279" y="318" width="16" height="43" rx="8" fill="white"/>
</g>
</g>
<defs>
<filter id="filter0_d_703_3147" x="258" y="368" width="52" height="87" filterUnits="userSpaceOnUse" color-interpolation-filters="sRGB">
<feFlood flood-opacity="0" result="BackgroundImageFix"/>
<feColorMatrix in="SourceAlpha" type="matrix" values="0 0 0 0 0 0 0 0 0 0 0 0 0 0 0 0 0 0 127 0" result="hardAlpha"/>
<feOffset dy="4"/>
<feGaussianBlur stdDeviation="2"/>
<feComposite in2="hardAlpha" operator="out"/>
<feColorMatrix type="matrix" values="0 0 0 0 0 0 0 0 0 0 0 0 0 0 0 0 0 0 0.25 0"/>
<feBlend mode="normal" in2="BackgroundImageFix" result="effect1_dropShadow_703_3147"/>
<feBlend mode="normal" in="SourceGraphic" in2="effect1_dropShadow_703_3147" result="shape"/>
</filter>
<filter id="filter1_d_703_3147" x="285.094" y="315.02" width="62.3566" height="88.4966" filterUnits="userSpaceOnUse" color-interpolation-filters="sRGB">
<feFlood flood-opacity="0" result="BackgroundImageFix"/>
<feColorMatrix in="SourceAlpha" type="matrix" values="0 0 0 0 0 0 0 0 0 0 0 0 0 0 0 0 0 0 127 0" result="hardAlpha"/>
<feOffset dy="4.75339"/>
<feGaussianBlur stdDeviation="2.3767"/>
<feComposite in2="hardAlpha" operator="out"/>
<feColorMatrix type="matrix" values="0 0 0 0 0 0 0 0 0 0 0 0 0 0 0 0 0 0 0.25 0"/>
<feBlend mode="normal" in2="BackgroundImageFix" result="effect1_dropShadow_703_3147"/>
<feBlend mode="normal" in="SourceGraphic" in2="effect1_dropShadow_703_3147" result="shape"/>
</filter>
<filter id="filter2_d_703_3147" x="240.247" y="331" width="26.5068" height="38.5068" filterUnits="userSpaceOnUse" color-interpolation-filters="sRGB">
<feFlood flood-opacity="0" result="BackgroundImageFix"/>
<feColorMatrix in="SourceAlpha" type="matrix" values="0 0 0 0 0 0 0 0 0 0 0 0 0 0 0 0 0 0 127 0" result="hardAlpha"/>
<feOffset dy="4.75339"/>
<feGaussianBlur stdDeviation="2.3767"/>
<feComposite in2="hardAlpha" operator="out"/>
<feColorMatrix type="matrix" values="0 0 0 0 0 0 0 0 0 0 0 0 0 0 0 0 0 0 0.25 0"/>
<feBlend mode="normal" in2="BackgroundImageFix" result="effect1_dropShadow_703_3147"/>
<feBlend mode="normal" in="SourceGraphic" in2="effect1_dropShadow_703_3147" result="shape"/>
</filter>
<filter id="filter3_d_703_3147" x="257.247" y="325" width="26.5068" height="45.5068" filterUnits="userSpaceOnUse" color-interpolation-filters="sRGB">
<feFlood flood-opacity="0" result="BackgroundImageFix"/>
<feColorMatrix in="SourceAlpha" type="matrix" values="0 0 0 0 0 0 0 0 0 0 0 0 0 0 0 0 0 0 127 0" result="hardAlpha"/>
<feOffset dy="4.75339"/>
<feGaussianBlur stdDeviation="2.3767"/>
<feComposite in2="hardAlpha" operator="out"/>
<feColorMatrix type="matrix" values="0 0 0 0 0 0 0 0 0 0 0 0 0 0 0 0 0 0 0.25 0"/>
<feBlend mode="normal" in2="BackgroundImageFix" result="effect1_dropShadow_703_3147"/>
<feBlend mode="normal" in="SourceGraphic" in2="effect1_dropShadow_703_3147" result="shape"/>
</filter>
<filter id="filter4_d_703_3147" x="274.247" y="318" width="25.5068" height="52.5068" filterUnits="userSpaceOnUse" color-interpolation-filters="sRGB">
<feFlood flood-opacity="0" result="BackgroundImageFix"/>
<feColorMatrix in="SourceAlpha" type="matrix" values="0 0 0 0 0 0 0 0 0 0 0 0 0 0 0 0 0 0 127 0" result="hardAlpha"/>
<feOffset dy="4.75339"/>
<feGaussianBlur stdDeviation="2.3767"/>
<feComposite in2="hardAlpha" operator="out"/>
<feColorMatrix type="matrix" values="0 0 0 0 0 0 0 0 0 0 0 0 0 0 0 0 0 0 0.25 0"/>
<feBlend mode="normal" in2="BackgroundImageFix" result="effect1_dropShadow_703_3147"/>
<feBlend mode="normal" in="SourceGraphic" in2="effect1_dropShadow_703_3147" result="shape"/>
</filter>
<linearGradient id="paint0_linear_703_3147" x1="400.111" y1="282.954" x2="3.07074" y2="679.994" gradientUnits="userSpaceOnUse">
<stop stop-color="#FF0D0D"/>
<stop offset="1" stop-color="#BA0909"/>
</linearGradient>
<linearGradient id="paint1_linear_703_3147" x1="155.993" y1="230" x2="155.993" y2="348.651" gradientUnits="userSpaceOnUse">
<stop stop-color="#B4B4B4"/>
<stop offset="1" stop-color="white"/>
</linearGradient>
<linearGradient id="paint2_linear_703_3147" x1="411.979" y1="230" x2="411.979" y2="348.651" gradientUnits="userSpaceOnUse">
<stop stop-color="#B4B4B4"/>
<stop offset="1" stop-color="white"/>
</linearGradient>
</defs>
</svg>
